<svg xmlns="http://www.w3.org/2000/svg" viewBox="0 0 64 64" role="img" aria-label="Max">
  <defs>
    <linearGradient id="bg" x1="11" y1="8" x2="54" y2="58" gradientUnits="userSpaceOnUse">
      <stop stop-color="#38D5FF"/>
      <stop offset="0.45" stop-color="#1478D4"/>
      <stop offset="1" stop-color="#112B76"/>
    </linearGradient>
    <radialGradient id="glow" cx="0" cy="0" r="1" gradientUnits="userSpaceOnUse" gradientTransform="translate(24 19) rotate(53) scale(42)">
      <stop stop-color="#FFFFFF" stop-opacity="0.82"/>
      <stop offset="0.42" stop-color="#FFFFFF" stop-opacity="0.18"/>
      <stop offset="1" stop-color="#FFFFFF" stop-opacity="0"/>
    </radialGradient>
    <filter id="shadow" x="-20%" y="-20%" width="140%" height="140%">
      <feDropShadow dx="0" dy="5" stdDeviation="4" flood-color="#04111F" flood-opacity="0.32"/>
    </filter>
  </defs>
  <circle cx="32" cy="32" r="29" fill="url(#bg)"/>
  <circle cx="32" cy="32" r="29" fill="url(#glow)"/>
  <g filter="url(#shadow)" fill="none" stroke="#FFFFFF" stroke-width="3.2" stroke-linecap="round" stroke-linejoin="round">
    <path d="M20 34c0-7 5.4-12.5 12-12.5S44 27 44 34"/>
    <path d="M23 36.5c1.6 5.1 5 7.7 9 7.7s7.4-2.6 9-7.7"/>
    <path d="M32 19v-4"/>
    <path d="M20.5 25.5l-3.2-3.2"/>
    <path d="M43.5 25.5l3.2-3.2"/>
    <path d="M24 34h16"/>
    <path d="M32 34v10"/>
    <circle cx="20" cy="34" r="3.2" fill="#FFFFFF" stroke="none"/>
    <circle cx="32" cy="34" r="3.2" fill="#FFFFFF" stroke="none"/>
    <circle cx="44" cy="34" r="3.2" fill="#FFFFFF" stroke="none"/>
    <circle cx="32" cy="46" r="3.2" fill="#FFFFFF" stroke="none"/>
  </g>
</svg>
